<svg 
 xmlns="http://www.w3.org/2000/svg"
 xmlns:xlink="http://www.w3.org/1999/xlink"
 width="49px" height="44px">
<path fill-rule="evenodd"  fill="rgb(255, 255, 255)"
 d="M38.610,13.782 C38.877,12.733 39.090,11.712 39.244,10.728 C40.046,5.608 39.160,2.016 36.750,0.614 C36.049,0.206 35.244,-0.000 34.357,-0.000 C31.554,-0.000 28.013,2.096 24.440,5.638 C23.660,4.865 22.876,4.156 22.094,3.519 C18.093,0.259 14.562,-0.764 12.152,0.638 C10.603,1.539 9.661,3.379 9.428,5.958 C9.389,6.391 9.706,6.774 10.136,6.814 C10.568,6.854 10.946,6.534 10.986,6.101 C11.115,4.673 11.557,2.803 12.934,2.002 C14.718,0.965 17.698,1.964 21.111,4.744 C21.856,5.351 22.603,6.027 23.349,6.764 C21.850,8.370 20.359,10.219 18.927,12.262 C16.408,12.493 14.009,12.881 11.807,13.412 C11.422,11.902 11.157,10.461 11.026,9.124 C10.984,8.691 10.603,8.375 10.172,8.417 C9.742,8.460 9.428,8.845 9.470,9.278 C9.608,10.693 9.888,12.216 10.296,13.808 C9.295,14.093 8.343,14.408 7.448,14.755 C2.645,16.616 -0.000,19.185 -0.000,21.989 C-0.000,24.792 2.645,27.361 7.448,29.222 C8.371,29.579 9.355,29.904 10.390,30.195 C10.123,31.244 9.910,32.265 9.756,33.249 C8.954,38.369 9.840,41.961 12.250,43.363 C12.950,43.771 13.756,43.977 14.643,43.977 C17.413,43.977 20.906,41.928 24.436,38.460 C25.193,39.204 25.952,39.890 26.709,40.506 C29.541,42.813 32.137,44.000 34.267,44.000 C35.147,44.000 35.947,43.798 36.652,43.388 C39.062,41.986 39.948,38.394 39.146,33.273 C38.992,32.289 38.779,31.268 38.512,30.220 C40.121,29.773 41.602,29.247 42.913,28.649 C43.307,28.469 43.481,28.002 43.302,27.606 C43.124,27.210 42.661,27.034 42.267,27.214 C41.026,27.781 39.622,28.280 38.093,28.704 C37.461,26.576 36.619,24.355 35.593,22.108 C36.665,19.784 37.541,17.486 38.194,15.288 C43.997,16.925 47.436,19.510 47.436,21.989 C47.436,23.590 46.050,24.911 44.887,25.737 C44.534,25.988 44.450,26.480 44.699,26.835 C44.948,27.191 45.436,27.276 45.788,27.025 C47.890,25.532 49.000,23.790 49.000,21.989 C49.000,19.185 46.355,16.616 41.552,14.755 C40.629,14.398 39.645,14.073 38.610,13.782 ZM35.968,1.978 C37.752,3.016 38.383,6.116 37.699,10.483 C37.553,11.419 37.350,12.390 37.096,13.389 C34.885,12.861 32.477,12.477 29.951,12.251 C28.534,10.230 27.046,8.382 25.533,6.763 C25.810,6.488 26.087,6.221 26.364,5.965 C29.413,3.134 32.252,1.575 34.357,1.575 C34.966,1.575 35.508,1.711 35.968,1.978 ZM27.917,12.104 C26.794,12.043 25.653,12.011 24.500,12.011 C23.308,12.011 22.129,12.045 20.970,12.110 C22.097,10.581 23.265,9.162 24.443,7.893 C25.622,9.159 26.788,10.573 27.917,12.104 ZM20.842,31.859 C22.042,31.930 23.264,31.966 24.500,31.966 C25.690,31.966 26.870,31.931 28.031,31.864 C26.866,33.447 25.657,34.911 24.437,36.214 C23.215,34.910 22.008,33.447 20.842,31.859 ZM19.671,30.203 C18.809,28.935 17.974,27.601 17.179,26.214 C16.397,24.849 15.677,23.472 15.025,22.102 C15.702,20.667 16.454,19.223 17.277,17.787 C18.073,16.398 18.919,15.050 19.797,13.764 C21.296,13.649 22.866,13.586 24.500,13.586 C26.092,13.586 27.623,13.646 29.087,13.755 C29.966,15.044 30.816,16.400 31.625,17.812 C32.443,19.240 33.192,20.677 33.867,22.105 C33.218,23.464 32.502,24.831 31.723,26.190 C30.928,27.577 30.084,28.922 29.207,30.206 C27.673,30.327 26.097,30.391 24.500,30.391 C22.820,30.391 21.208,30.325 19.671,30.203 ZM12.321,29.082 C12.815,27.423 13.442,25.704 14.190,23.957 C14.701,24.975 15.246,25.992 15.825,27.002 C16.416,28.033 17.029,29.036 17.659,30.007 C15.735,29.783 13.950,29.468 12.321,29.082 ZM15.923,17.000 C15.304,18.079 14.724,19.164 14.184,20.248 C13.398,18.429 12.739,16.638 12.225,14.918 C13.915,14.513 15.774,14.185 17.783,13.956 C17.146,14.934 16.524,15.950 15.923,17.000 ZM10.713,15.314 C11.363,17.499 12.235,19.790 13.299,22.104 C12.276,24.347 11.436,26.565 10.806,28.690 C5.003,27.052 1.564,24.467 1.564,21.989 C1.564,19.523 4.966,16.952 10.713,15.314 ZM13.032,41.999 C11.248,40.961 10.617,37.861 11.300,33.494 C11.447,32.558 11.650,31.587 11.904,30.588 C14.043,31.099 16.366,31.474 18.803,31.703 C20.257,33.783 21.786,35.682 23.341,37.338 C23.106,37.569 22.871,37.794 22.636,38.012 C19.587,40.843 16.748,42.402 14.643,42.402 C14.034,42.402 13.492,42.266 13.032,41.999 ZM35.870,42.023 C34.086,43.061 31.106,42.062 27.693,39.282 C26.974,38.696 26.253,38.046 25.534,37.339 C27.073,35.702 28.605,33.809 30.075,31.711 C32.518,31.485 34.853,31.113 36.997,30.607 C37.252,31.608 37.455,32.581 37.602,33.518 C38.285,37.886 37.654,40.986 35.870,42.023 ZM31.224,30.010 C31.859,29.035 32.478,28.023 33.077,26.977 C33.652,25.974 34.194,24.965 34.701,23.957 C35.452,25.707 36.080,27.429 36.577,29.091 C34.902,29.483 33.104,29.792 31.224,30.010 ZM32.979,17.024 C32.373,15.966 31.743,14.936 31.095,13.942 C33.113,14.167 34.981,14.492 36.679,14.895 C36.162,16.628 35.501,18.427 34.709,20.254 C34.171,19.176 33.594,18.097 32.979,17.024 ZM20.590,21.989 C20.590,24.160 22.344,25.927 24.500,25.927 C26.656,25.927 28.410,24.160 28.410,21.989 C28.410,19.817 26.656,18.050 24.500,18.050 C22.344,18.050 20.590,19.817 20.590,21.989 ZM22.154,21.989 C22.154,20.686 23.207,19.625 24.500,19.625 C25.793,19.625 26.846,20.686 26.846,21.989 C26.846,23.292 25.793,24.352 24.500,24.352 C23.207,24.352 22.154,23.292 22.154,21.989 Z"/>
</svg>