<svg 
 xmlns="http://www.w3.org/2000/svg"
 xmlns:xlink="http://www.w3.org/1999/xlink"
 width="40px" height="50px">
<path fill-rule="evenodd"  fill="rgb(255, 255, 255)"
 d="M39.206,33.227 C39.645,33.227 40.000,33.584 40.000,34.025 C40.000,34.025 40.000,34.025 40.000,39.622 C40.000,41.836 38.212,43.637 36.014,43.637 L21.799,43.662 C21.799,43.662 21.799,43.662 21.799,49.201 C21.799,49.478 21.656,49.735 21.423,49.881 C21.295,49.960 21.150,50.000 21.005,50.000 C20.884,50.000 20.762,49.972 20.650,49.916 L16.772,47.964 C16.772,47.964 16.772,47.964 12.895,49.916 C12.649,50.039 12.356,50.026 12.122,49.881 C11.888,49.735 11.746,49.478 11.746,49.201 L11.746,43.663 C11.746,43.663 11.746,43.663 3.958,43.663 C1.775,43.663 -0.000,41.850 -0.000,39.622 C-0.000,39.622 -0.000,39.622 -0.000,3.935 C-0.000,1.728 1.738,-0.000 3.958,-0.000 C3.958,-0.000 3.958,-0.000 36.014,-0.000 C38.212,-0.000 40.000,1.765 40.000,3.935 C40.000,3.935 40.000,3.935 40.000,9.531 C40.000,9.972 39.645,10.330 39.206,10.330 L33.651,10.330 L33.651,33.227 C33.651,33.227 33.651,33.227 39.206,33.227 ZM33.651,39.622 C33.651,40.949 34.711,42.033 36.015,42.039 C37.315,42.038 38.413,40.932 38.413,39.622 L38.413,34.824 L33.651,34.824 C33.651,34.824 33.651,34.824 33.651,39.622 ZM13.333,47.909 C13.333,47.909 13.333,47.909 16.417,46.357 C16.641,46.244 16.904,46.244 17.127,46.357 L20.212,47.909 C20.212,47.909 20.212,47.909 20.212,38.518 C19.174,39.085 18.007,39.388 16.809,39.388 C15.582,39.388 14.388,39.070 13.333,38.477 L13.333,47.909 ZM13.087,36.346 C14.110,37.277 15.432,37.790 16.809,37.790 C18.106,37.790 19.358,37.332 20.354,36.499 C20.425,36.395 20.520,36.309 20.632,36.250 C21.735,35.194 22.365,33.731 22.365,32.199 C22.365,29.116 19.873,26.608 16.809,26.608 C13.746,26.608 11.254,29.116 11.254,32.199 C11.254,33.773 11.922,35.285 13.087,36.346 ZM32.858,1.597 C32.858,1.597 32.858,1.597 3.958,1.597 C2.628,1.597 1.587,2.624 1.587,3.935 C1.587,3.935 1.587,3.935 1.587,39.622 C1.587,40.970 2.651,42.066 3.958,42.066 L11.746,42.066 C11.746,42.066 11.746,42.066 11.746,37.265 C10.420,35.920 9.667,34.095 9.667,32.199 C9.667,28.235 12.871,25.010 16.809,25.010 C20.748,25.010 23.952,28.235 23.952,32.199 C23.952,34.135 23.172,35.987 21.799,37.337 L21.799,42.064 C21.799,42.064 21.799,42.064 32.870,42.045 C32.365,41.370 32.063,40.531 32.063,39.622 C32.063,39.622 32.063,39.622 32.063,3.988 C32.063,3.093 32.360,2.264 32.858,1.597 ZM38.413,8.733 L38.413,3.935 C38.413,2.647 37.337,1.598 36.015,1.597 C34.711,1.603 33.651,2.675 33.651,3.988 L33.651,8.733 L38.413,8.733 ZM27.407,17.785 C27.407,17.785 27.407,17.785 6.243,17.785 C5.805,17.785 5.450,17.427 5.450,16.986 C5.450,16.545 5.805,16.187 6.243,16.187 L27.407,16.187 C27.846,16.187 28.201,16.545 28.201,16.986 C28.201,17.427 27.846,17.785 27.407,17.785 ZM27.407,14.590 C27.407,14.590 27.407,14.590 24.233,14.590 C23.794,14.590 23.439,14.232 23.439,13.791 C23.439,13.350 23.794,12.992 24.233,12.992 L27.407,12.992 C27.846,12.992 28.201,13.350 28.201,13.791 C28.201,14.232 27.846,14.590 27.407,14.590 ZM24.704,10.180 C24.358,10.451 23.859,10.388 23.590,10.040 L21.748,7.655 C21.748,7.655 21.748,7.655 19.906,10.040 C19.755,10.234 19.524,10.348 19.279,10.348 C19.034,10.348 18.803,10.234 18.653,10.040 L16.810,7.655 C16.810,7.655 16.810,7.655 14.967,10.040 C14.817,10.234 14.586,10.348 14.341,10.348 C14.096,10.348 13.865,10.234 13.714,10.040 L11.872,7.655 C11.872,7.655 11.872,7.655 10.029,10.040 C9.872,10.242 9.638,10.348 9.402,10.348 C9.231,10.348 9.060,10.293 8.915,10.180 C8.569,9.909 8.507,9.407 8.776,9.059 C8.776,9.059 8.776,9.059 11.246,5.864 C11.396,5.669 11.627,5.556 11.872,5.556 C12.117,5.556 12.348,5.670 12.498,5.864 L14.341,8.248 C14.341,8.248 14.341,8.248 16.184,5.864 C16.334,5.669 16.566,5.556 16.811,5.556 C17.055,5.556 17.287,5.669 17.437,5.864 L19.279,8.248 C19.279,8.248 19.279,8.248 21.122,5.864 C21.272,5.669 21.503,5.556 21.748,5.556 C21.993,5.556 22.224,5.669 22.374,5.864 C22.374,5.864 22.374,5.864 24.843,9.059 C25.112,9.407 25.050,9.909 24.704,10.180 ZM21.852,13.791 C21.852,14.232 21.496,14.590 21.058,14.590 L6.243,14.590 C5.805,14.590 5.450,14.232 5.450,13.791 C5.450,13.350 5.805,12.992 6.243,12.992 C6.243,12.992 6.243,12.992 21.058,12.992 C21.496,12.992 21.852,13.350 21.852,13.791 ZM9.418,19.382 L24.233,19.382 C24.671,19.382 25.026,19.740 25.026,20.181 C25.026,20.622 24.671,20.980 24.233,20.980 C24.233,20.980 24.233,20.980 9.418,20.980 C8.980,20.980 8.624,20.622 8.624,20.181 C8.624,19.740 8.980,19.382 9.418,19.382 ZM16.809,28.205 C18.998,28.205 20.778,29.997 20.778,32.199 C20.778,34.401 18.998,36.193 16.809,36.193 C14.621,36.193 12.841,34.401 12.841,32.199 C12.841,29.997 14.621,28.205 16.809,28.205 ZM16.809,34.595 C18.122,34.595 19.190,33.520 19.190,32.199 C19.190,30.878 18.122,29.803 16.809,29.803 C15.497,29.803 14.428,30.878 14.428,32.199 C14.428,33.520 15.497,34.595 16.809,34.595 Z"/>
</svg>