<svg 
 xmlns="http://www.w3.org/2000/svg"
 xmlns:xlink="http://www.w3.org/1999/xlink"
 width="36px" height="44px">
<path fill-rule="evenodd"  fill="rgb(255, 255, 255)"
 d="M28.703,41.405 C26.508,43.122 24.185,44.002 21.890,44.002 C21.239,44.002 20.591,43.932 19.947,43.789 C18.673,43.507 17.329,43.507 16.054,43.789 C13.145,44.435 10.115,43.609 7.298,41.405 C3.032,38.068 0.034,32.161 0.007,27.042 C-0.029,20.112 1.371,15.646 4.286,13.390 C7.539,10.871 12.151,11.569 15.804,12.458 C16.149,12.542 16.499,12.604 16.852,12.647 C16.296,10.187 15.023,7.739 12.715,6.528 C12.347,6.335 12.207,5.885 12.403,5.523 C12.601,5.161 13.057,5.022 13.427,5.216 C15.089,6.088 16.294,7.472 17.132,9.053 C17.132,9.053 17.132,9.053 17.377,7.430 C17.916,3.874 20.707,1.130 24.323,0.600 L28.420,-0.000 C28.420,-0.000 28.420,-0.000 28.272,0.982 C28.277,1.083 28.264,1.183 28.228,1.278 C28.228,1.278 28.228,1.278 27.811,4.030 C27.273,7.586 24.481,10.331 20.866,10.860 C20.866,10.860 20.866,10.860 18.043,11.273 C18.189,11.746 18.309,12.221 18.405,12.696 C19.009,12.669 19.611,12.601 20.198,12.457 C23.851,11.568 28.461,10.871 31.716,13.389 C34.631,15.646 36.031,20.111 35.994,27.042 C35.967,32.161 32.969,38.067 28.703,41.405 ZM20.643,9.389 C23.596,8.957 25.876,6.715 26.314,3.811 L26.413,3.159 L19.980,9.486 L20.643,9.389 ZM25.529,1.927 L24.546,2.071 C21.592,2.504 19.312,4.745 18.873,7.649 L18.727,8.617 L25.529,1.927 ZM30.782,14.559 C28.643,12.905 25.490,12.703 20.561,13.901 C19.927,14.055 19.278,14.133 18.628,14.170 C18.665,14.528 18.692,14.883 18.703,15.227 C18.716,15.637 18.389,15.980 17.971,15.993 C17.963,15.993 17.956,15.993 17.947,15.993 C17.541,15.993 17.206,15.676 17.193,15.274 C17.181,14.909 17.152,14.534 17.109,14.153 C16.547,14.107 15.989,14.034 15.441,13.901 C10.512,12.702 7.358,12.904 5.221,14.558 C2.697,16.511 1.486,20.592 1.520,27.034 C1.544,31.660 4.370,37.214 8.240,40.242 C9.945,41.577 12.632,43.025 15.723,42.338 C16.468,42.173 17.234,42.090 18.001,42.090 C18.768,42.090 19.535,42.173 20.280,42.338 C23.377,43.026 26.057,41.577 27.763,40.242 C31.632,37.214 34.459,31.659 34.483,27.035 C34.517,20.593 33.306,16.512 30.782,14.559 ZM17.880,17.648 C16.611,17.648 15.415,17.161 14.516,16.277 C14.221,15.987 14.221,15.516 14.516,15.226 C14.812,14.935 15.289,14.935 15.585,15.226 C16.198,15.829 17.014,16.161 17.880,16.161 C18.745,16.161 19.560,15.829 20.174,15.226 C20.470,14.935 20.947,14.935 21.243,15.226 C21.538,15.515 21.538,15.986 21.243,16.277 C20.344,17.161 19.149,17.648 17.880,17.648 ZM10.590,16.494 C7.673,16.494 5.299,19.162 5.299,22.442 C5.299,22.852 4.961,23.185 4.543,23.185 C4.125,23.185 3.787,22.852 3.787,22.442 C3.787,18.343 6.838,15.008 10.590,15.008 C11.008,15.008 11.346,15.341 11.346,15.751 C11.346,16.161 11.008,16.494 10.590,16.494 Z"/>
</svg>