<svg 
 xmlns="http://www.w3.org/2000/svg"
 xmlns:xlink="http://www.w3.org/1999/xlink"
 width="50px" height="44px">
<path fill-rule="evenodd"  fill="rgb(255, 255, 255)"
 d="M49.772,21.393 C49.772,21.393 49.772,21.393 29.821,41.036 C29.668,41.185 29.469,41.260 29.270,41.260 C29.070,41.260 28.871,41.185 28.719,41.036 L28.094,40.420 C28.094,40.420 28.094,40.420 28.094,43.232 C28.094,43.656 27.745,43.999 27.314,43.999 C27.314,43.999 27.314,43.999 0.779,43.999 C0.349,43.999 0.000,43.656 0.000,43.232 C0.000,43.232 0.000,43.232 0.000,0.767 C0.000,0.344 0.349,0.000 0.779,0.000 C0.779,0.000 0.779,0.000 27.314,0.000 C27.745,0.000 28.094,0.344 28.094,0.767 C28.094,0.767 28.094,0.767 28.094,12.037 C29.002,11.488 30.070,11.171 31.212,11.171 C33.042,11.171 34.683,11.986 35.780,13.266 C35.780,13.266 35.780,13.266 38.649,10.441 C38.953,10.142 39.446,10.142 39.751,10.441 L49.772,20.308 C49.918,20.452 50.000,20.647 50.000,20.850 C50.000,21.054 49.918,21.249 49.772,21.393 ZM26.535,1.535 L1.558,1.535 L1.558,42.465 L26.535,42.465 L26.535,42.465 L26.535,38.886 L23.356,35.755 L23.356,37.252 L19.012,37.252 L19.012,35.718 L23.318,35.718 L21.450,33.879 L19.012,33.879 L19.012,32.345 L19.892,32.345 C19.892,32.345 19.892,32.345 18.698,31.169 C18.552,31.025 18.470,30.830 18.470,30.627 C18.470,30.423 18.552,30.228 18.698,30.084 L19.012,29.774 L19.012,28.972 L19.828,28.972 L21.695,27.133 L19.012,27.133 L19.012,25.599 L23.254,25.599 C23.254,25.599 23.254,25.599 27.361,21.555 C26.061,20.474 25.233,18.860 25.233,17.057 C25.233,15.674 25.721,14.402 26.535,13.396 L26.535,1.535 ZM31.212,12.705 C28.774,12.705 26.791,14.657 26.791,17.057 C26.791,19.457 28.774,21.409 31.212,21.409 C33.649,21.409 35.632,19.457 35.632,17.057 C35.632,14.657 33.649,12.705 31.212,12.705 ZM35.106,29.474 C34.015,29.474 32.822,28.989 31.877,28.059 C31.112,27.306 30.613,26.369 30.473,25.420 C30.378,24.781 30.456,24.170 30.687,23.644 L23.595,30.627 L29.270,36.214 C29.270,36.214 29.270,36.214 36.365,29.229 C35.978,29.393 35.550,29.474 35.106,29.474 ZM35.490,24.503 C34.968,23.989 34.311,23.642 33.686,23.553 C33.598,23.540 33.490,23.530 33.370,23.530 C33.054,23.530 32.660,23.602 32.362,23.895 C31.952,24.299 31.968,24.885 32.015,25.198 C32.106,25.813 32.458,26.461 32.979,26.974 C33.995,27.974 35.427,28.252 36.108,27.582 C36.788,26.912 36.505,25.502 35.490,24.503 ZM34.282,22.106 C35.117,22.304 35.925,22.761 36.592,23.417 C37.921,24.726 38.355,26.521 37.780,27.835 L44.875,20.850 L39.200,15.263 C39.200,15.263 39.200,15.263 37.186,17.246 C37.119,19.308 35.971,21.106 34.282,22.106 ZM39.200,12.069 C39.200,12.069 39.200,12.069 36.638,14.591 C36.750,14.829 36.848,15.076 36.927,15.330 C36.927,15.330 36.927,15.330 38.649,13.635 C38.953,13.336 39.446,13.336 39.751,13.635 C39.751,13.635 39.751,13.635 46.527,20.308 C46.674,20.452 46.756,20.647 46.756,20.850 C46.756,21.054 46.674,21.249 46.527,21.393 C46.527,21.393 46.527,21.393 29.821,37.842 C29.668,37.991 29.469,38.066 29.270,38.066 C29.070,38.066 28.871,37.991 28.719,37.842 C28.719,37.842 28.719,37.842 21.942,31.169 C21.638,30.870 21.638,30.384 21.942,30.085 C21.942,30.085 21.942,30.085 29.458,22.685 C29.199,22.606 28.949,22.510 28.707,22.400 L20.351,30.627 L29.270,39.408 L48.119,20.850 L39.200,12.069 ZM31.212,20.948 C29.033,20.948 27.260,19.203 27.260,17.057 C27.260,14.912 29.033,13.166 31.212,13.166 C33.391,13.166 35.164,14.911 35.164,17.057 C35.164,19.203 33.391,20.948 31.212,20.948 ZM31.212,14.700 C29.892,14.700 28.818,15.758 28.818,17.057 C28.818,18.357 29.892,19.414 31.212,19.414 C32.532,19.414 33.605,18.357 33.605,17.057 C33.605,15.758 32.532,14.700 31.212,14.700 ZM3.875,19.531 L24.219,19.531 L24.219,21.062 L3.875,21.062 L3.875,19.531 ZM3.875,15.969 L24.219,15.969 L24.219,17.531 L3.875,17.531 L3.875,15.969 ZM9.625,10.344 L9.625,8.812 L18.469,8.812 L18.469,10.344 L9.625,10.344 ZM7.469,5.875 L20.625,5.875 L20.625,7.406 L7.469,7.406 L7.469,5.875 ZM15.656,27.125 L4.750,27.125 L4.750,25.594 L15.656,25.594 L15.656,27.125 ZM15.656,30.500 L4.750,30.500 L4.750,28.969 L15.656,28.969 L15.656,30.500 ZM15.656,33.875 L4.750,33.875 L4.750,32.344 L15.656,32.344 L15.656,33.875 ZM15.656,37.250 L4.750,37.250 L4.750,35.719 L15.656,35.719 L15.656,37.250 ZM36.360,10.660 C33.720,10.660 31.572,8.546 31.572,5.947 C31.572,3.347 33.720,1.233 36.360,1.233 C39.000,1.233 41.147,3.347 41.147,5.947 C41.147,8.546 39.000,10.660 36.360,10.660 ZM36.360,2.767 C34.579,2.767 33.131,4.193 33.131,5.947 C33.131,7.700 34.579,9.126 36.360,9.126 C38.140,9.126 39.589,7.700 39.589,5.947 C39.589,4.193 38.140,2.767 36.360,2.767 ZM36.360,8.690 C34.823,8.690 33.573,7.459 33.573,5.947 C33.573,4.434 34.823,3.203 36.360,3.203 C37.896,3.203 39.146,4.434 39.146,5.947 C39.146,7.459 37.896,8.690 36.360,8.690 ZM36.360,4.737 C35.683,4.737 35.132,5.280 35.132,5.947 C35.132,6.613 35.682,7.156 36.360,7.156 C37.037,7.156 37.588,6.613 37.588,5.947 C37.588,5.280 37.037,4.737 36.360,4.737 Z"/>
</svg>