<svg 
 xmlns="http://www.w3.org/2000/svg"
 xmlns:xlink="http://www.w3.org/1999/xlink"
 width="46px" height="52px">
<path fill-rule="evenodd"  fill="rgb(255, 255, 255)"
 d="M32.415,25.792 C32.881,25.792 33.259,25.403 33.259,24.925 C33.259,24.392 33.680,23.960 34.199,23.960 C34.717,23.960 35.138,24.392 35.138,24.925 C35.138,26.467 33.917,27.722 32.415,27.722 C30.914,27.722 29.692,26.467 29.692,24.925 C29.692,24.392 30.113,23.960 30.632,23.960 C31.151,23.960 31.571,24.392 31.571,24.925 C31.571,25.403 31.950,25.792 32.415,25.792 ZM30.324,12.177 C30.324,12.655 29.945,13.044 29.480,13.044 C29.015,13.044 28.636,12.655 28.636,12.177 C28.636,11.644 28.215,11.212 27.696,11.212 C27.178,11.212 26.757,11.644 26.757,12.177 C26.757,13.720 27.978,14.974 29.480,14.974 C30.981,14.974 32.203,13.720 32.203,12.177 C32.203,11.644 31.782,11.212 31.263,11.212 C30.745,11.212 30.324,11.644 30.324,12.177 ZM38.142,28.941 C38.340,28.448 38.111,27.884 37.631,27.681 C37.151,27.478 36.602,27.713 36.405,28.206 C35.636,30.124 33.834,31.364 31.815,31.364 C30.348,31.364 28.963,30.702 28.017,29.547 C27.719,29.183 27.206,29.097 26.810,29.344 C25.666,30.058 24.348,30.436 23.001,30.436 C21.653,30.436 20.336,30.058 19.191,29.344 C18.795,29.097 18.283,29.183 17.985,29.547 C17.038,30.702 15.653,31.364 14.187,31.364 C12.167,31.364 10.365,30.124 9.597,28.206 C9.399,27.713 8.850,27.478 8.370,27.681 C7.891,27.884 7.662,28.448 7.859,28.941 C8.919,31.585 11.403,33.294 14.187,33.294 C15.947,33.294 17.621,32.602 18.886,31.373 C20.158,32.025 21.566,32.366 23.001,32.366 C24.435,32.366 25.843,32.024 27.116,31.373 C28.380,32.602 30.054,33.294 31.815,33.294 C34.599,33.294 37.082,31.585 38.142,28.941 ZM19.555,34.609 C19.555,36.798 19.555,36.798 19.555,36.798 C18.710,36.328 17.960,35.686 17.351,34.907 C17.026,34.491 16.434,34.425 16.030,34.759 C15.625,35.093 15.561,35.700 15.886,36.116 C16.861,37.363 18.124,38.330 19.555,38.930 C19.555,45.782 19.555,45.782 19.555,45.782 C18.500,46.273 17.553,46.985 16.776,47.875 C11.419,47.875 11.419,47.875 11.419,47.875 C10.901,47.875 10.480,48.307 10.480,48.840 C10.480,49.373 10.901,49.805 11.419,49.805 C17.210,49.805 17.210,49.805 17.210,49.805 C17.495,49.805 17.764,49.673 17.942,49.444 C18.695,48.482 19.687,47.755 20.812,47.340 C21.185,47.203 21.434,46.839 21.434,46.432 C21.434,34.609 21.434,34.609 21.434,34.609 C21.434,34.076 21.013,33.644 20.494,33.644 C19.976,33.644 19.555,34.076 19.555,34.609 ZM13.855,16.664 C13.855,16.131 13.435,15.699 12.916,15.699 C12.397,15.699 11.976,16.131 11.976,16.664 C11.976,17.142 11.598,17.531 11.132,17.531 C10.667,17.531 10.288,17.142 10.288,16.664 C10.288,16.131 9.868,15.699 9.349,15.699 C8.830,15.699 8.409,16.131 8.409,16.664 C8.409,18.206 9.631,19.461 11.132,19.461 C12.634,19.461 13.855,18.206 13.855,16.664 ZM44.765,15.687 C43.846,12.397 41.146,9.961 37.821,9.376 C36.800,7.580 35.226,6.182 33.350,5.480 C33.212,4.948 33.013,4.433 32.756,3.944 C31.890,2.299 30.453,1.100 28.709,0.565 C26.964,0.031 25.122,0.226 23.521,1.115 C23.514,1.119 23.507,1.123 23.500,1.127 C22.048,0.389 20.455,-0.000 18.806,-0.000 C13.975,-0.000 9.672,3.454 8.178,8.463 C4.831,9.751 2.535,13.266 2.535,17.203 C2.535,18.167 2.669,19.112 2.932,20.019 C1.062,21.925 0.001,24.581 0.001,27.407 C0.001,29.827 0.793,32.167 2.230,33.995 C2.955,34.916 3.818,35.678 4.773,36.252 C5.638,39.524 9.045,41.460 12.406,40.574 C13.081,40.396 13.718,40.114 14.300,39.736 C14.738,39.451 14.869,38.855 14.591,38.404 C14.314,37.954 13.733,37.820 13.295,38.105 C12.879,38.375 12.423,38.577 11.938,38.705 C10.184,39.167 8.418,38.559 7.378,37.294 C7.522,37.325 7.668,37.353 7.814,37.377 C8.326,37.460 8.808,37.102 8.890,36.575 C8.971,36.049 8.622,35.555 8.109,35.471 C4.558,34.890 1.880,31.423 1.880,27.407 C1.880,24.913 2.883,22.590 4.631,21.032 C4.928,20.768 5.033,20.342 4.896,19.964 C4.576,19.088 4.414,18.158 4.414,17.202 C4.414,13.918 6.389,11.013 9.217,10.138 C9.530,10.042 9.772,9.784 9.855,9.459 C10.987,5.026 14.668,1.930 18.806,1.930 C21.289,1.930 23.624,3.008 25.382,4.965 C25.733,5.357 26.328,5.381 26.709,5.020 C27.090,4.658 27.114,4.048 26.763,3.656 C26.346,3.192 25.901,2.769 25.434,2.389 C26.322,2.131 27.265,2.137 28.172,2.415 C29.435,2.802 30.476,3.671 31.103,4.862 C31.357,5.344 31.532,5.860 31.624,6.394 C31.686,6.758 31.945,7.053 32.291,7.154 C34.758,7.880 36.646,10.140 37.100,12.911 C37.186,13.437 37.672,13.791 38.183,13.702 C38.694,13.614 39.039,13.116 38.953,12.590 C38.900,12.263 38.830,11.941 38.745,11.625 C40.760,12.399 42.368,14.105 42.959,16.219 C43.302,17.447 43.309,18.731 42.994,19.943 C42.973,19.923 42.952,19.902 42.931,19.882 C42.556,19.514 41.961,19.528 41.603,19.914 C41.245,20.299 41.259,20.910 41.634,21.278 C43.215,22.827 44.122,25.061 44.122,27.407 C44.122,31.423 41.444,34.890 37.892,35.471 C37.380,35.555 37.030,36.049 37.112,36.576 C37.193,37.102 37.675,37.460 38.187,37.377 C38.435,37.336 38.681,37.284 38.924,37.222 C37.893,38.536 36.093,39.176 34.306,38.705 C33.821,38.577 33.365,38.375 32.949,38.105 C32.511,37.820 31.930,37.954 31.653,38.404 C31.375,38.855 31.506,39.451 31.944,39.736 C32.526,40.114 33.163,40.396 33.839,40.574 C34.390,40.720 34.943,40.789 35.485,40.789 C38.273,40.789 40.792,38.956 41.490,36.182 C41.499,36.147 41.506,36.111 41.511,36.076 C42.354,35.525 43.119,34.825 43.771,33.995 C45.209,32.167 46.001,29.827 46.001,27.407 C46.001,25.350 45.427,23.359 44.383,21.693 C45.186,19.799 45.323,17.685 44.765,15.687 ZM34.614,47.875 C34.096,47.875 33.675,48.307 33.675,48.840 C33.675,49.373 34.096,49.805 34.614,49.805 C40.373,49.805 40.373,49.805 40.373,49.805 C40.891,49.805 41.312,49.373 41.312,48.840 C41.312,48.307 40.891,47.875 40.373,47.875 L34.614,47.875 ZM28.303,52.001 C28.092,52.001 27.885,51.977 27.684,51.930 C27.483,51.977 27.276,52.001 27.065,52.001 C25.369,52.001 23.836,50.469 23.574,48.513 C23.408,47.266 23.814,45.998 24.608,45.284 C25.118,44.825 25.736,44.638 26.367,44.744 C26.216,44.519 26.024,44.323 25.797,44.167 C25.366,43.870 25.251,43.271 25.540,42.828 C25.829,42.385 26.412,42.266 26.843,42.563 C27.648,43.117 28.221,43.943 28.476,44.878 C28.561,44.857 28.648,44.832 28.739,44.804 C29.437,44.588 30.163,44.750 30.733,45.250 C31.534,45.953 31.960,47.264 31.793,48.513 C31.532,50.469 29.999,52.001 28.303,52.001 ZM29.283,46.652 C28.017,47.045 27.097,46.939 26.106,46.658 C26.106,46.658 26.106,46.658 26.106,46.658 C26.037,46.638 25.965,46.629 25.845,46.736 C25.581,46.975 25.347,47.586 25.436,48.251 C25.566,49.221 26.327,50.071 27.066,50.071 C27.170,50.071 27.268,50.054 27.359,50.019 C27.464,49.980 27.574,49.960 27.684,49.960 C27.794,49.960 27.904,49.980 28.009,50.019 C28.100,50.054 28.198,50.071 28.303,50.071 C29.041,50.071 29.802,49.220 29.932,48.251 C30.019,47.598 29.787,46.959 29.513,46.718 C29.397,46.616 29.337,46.635 29.283,46.652 ZM24.567,34.609 C24.567,39.833 24.567,39.833 24.567,39.833 C24.567,40.366 24.988,40.798 25.507,40.798 C26.026,40.798 26.446,40.366 26.446,39.833 C26.446,38.930 26.446,38.930 26.446,38.930 C27.878,38.330 29.140,37.363 30.115,36.116 C30.440,35.700 30.376,35.093 29.971,34.759 C29.567,34.425 28.975,34.492 28.650,34.907 C28.041,35.686 27.291,36.328 26.446,36.798 C26.446,34.609 26.446,34.609 26.446,34.609 C26.446,34.076 26.026,33.644 25.507,33.644 C24.988,33.644 24.567,34.076 24.567,34.609 Z"/>
</svg>