<svg 
 xmlns="http://www.w3.org/2000/svg"
 xmlns:xlink="http://www.w3.org/1999/xlink"
 width="200.5px" height="70.5px">
<path fill-rule="evenodd"  fill="rgb(255, 255, 255)"
 d="M14.034,-0.000 L185.955,-0.000 C185.955,-0.000 186.483,5.937 190.000,9.000 C193.505,12.052 200.000,12.229 200.000,12.229 L200.000,57.889 C199.991,57.898 192.321,58.194 189.017,61.034 C185.354,64.181 185.954,70.000 185.954,70.000 L14.071,70.000 C14.071,70.000 13.408,63.947 10.000,61.000 C6.380,57.870 -0.000,57.835 -0.000,57.835 C-0.000,57.835 -0.000,24.773 -0.000,11.973 C-0.000,11.992 6.210,12.239 10.000,9.000 C13.172,6.289 14.034,-0.000 14.034,-0.000 Z"/>
<path fill-rule="evenodd"  stroke="rgb(68, 69, 69)" stroke-width="1px" stroke-linecap="butt" stroke-linejoin="miter" fill="rgb(255, 255, 255)"
 d="M19.034,6.000 L180.955,6.000 C180.955,6.000 181.483,10.937 185.000,14.000 C188.505,17.052 194.000,17.230 194.000,17.230 L194.000,52.889 C193.991,52.898 187.321,53.193 184.017,56.034 C180.354,59.182 180.954,64.000 180.954,64.000 L19.071,64.000 C19.071,64.000 18.409,58.947 15.000,56.000 C11.380,52.870 6.000,52.834 6.000,52.834 C6.000,52.834 6.000,29.773 6.000,16.973 C6.000,16.992 11.210,17.239 15.000,14.000 C18.172,11.289 19.034,6.000 19.034,6.000 Z"/>
<path fill-rule="evenodd"  fill="rgb(68, 69, 69)"
 d="M24.000,31.000 C26.209,31.000 28.000,32.791 28.000,35.000 C28.000,37.209 26.209,39.000 24.000,39.000 C21.791,39.000 20.000,37.209 20.000,35.000 C20.000,32.791 21.791,31.000 24.000,31.000 Z"/>
<path fill-rule="evenodd"  fill="rgb(68, 69, 69)"
 d="M176.000,31.000 C178.209,31.000 180.000,32.791 180.000,35.000 C180.000,37.209 178.209,39.000 176.000,39.000 C173.791,39.000 172.000,37.209 172.000,35.000 C172.000,32.791 173.791,31.000 176.000,31.000 Z"/>
</svg>