<?xml version="1.0" encoding="UTF-8" standalone="no"?>
<svg
   xmlns:dc="http://purl.org/dc/elements/1.1/"
   xmlns:cc="http://creativecommons.org/ns#"
   xmlns:rdf="http://www.w3.org/1999/02/22-rdf-syntax-ns#"
   xmlns:svg="http://www.w3.org/2000/svg"
   xmlns="http://www.w3.org/2000/svg"
   xmlns:sodipodi="http://sodipodi.sourceforge.net/DTD/sodipodi-0.dtd"
   xmlns:inkscape="http://www.inkscape.org/namespaces/inkscape"
   width="100px"
   height="104px"
   version="1.1"
   id="svg12"
   sodipodi:docname="star-2.svg"
   inkscape:version="0.92.1 r15371">
  <metadata
     id="metadata18">
    <rdf:RDF>
      <cc:Work
         rdf:about="">
        <dc:format>image/svg+xml</dc:format>
        <dc:type
           rdf:resource="http://purl.org/dc/dcmitype/StillImage" />
        <dc:title></dc:title>
      </cc:Work>
    </rdf:RDF>
  </metadata>
  <defs
     id="defs16" />
  <sodipodi:namedview
     pagecolor="#ffffff"
     bordercolor="#666666"
     borderopacity="1"
     objecttolerance="10"
     gridtolerance="10"
     guidetolerance="10"
     inkscape:pageopacity="0"
     inkscape:pageshadow="2"
     inkscape:window-width="1920"
     inkscape:window-height="1057"
     id="namedview14"
     showgrid="false"
     inkscape:zoom="8.5384615"
     inkscape:cx="35.536036"
     inkscape:cy="52"
     inkscape:window-x="-8"
     inkscape:window-y="-8"
     inkscape:window-maximized="1"
     inkscape:current-layer="svg12" />
  <path
     fill-rule="evenodd"
     fill="rgb(68, 69, 69)"
     d="M95.875,47.097 C98.445,43.434 98.445,43.434 98.445,43.434 C101.706,38.800 99.611,32.335 94.233,30.482 C89.999,29.038 89.999,29.038 89.999,29.038 C86.608,27.874 84.297,24.706 84.232,21.129 C84.168,16.668 84.168,16.668 84.168,16.668 C84.081,11.000 78.552,7.014 73.130,8.673 C68.832,9.966 68.832,9.966 68.832,9.966 C65.398,11.022 61.661,9.815 59.501,6.949 C56.801,3.372 56.801,3.372 56.801,3.372 C53.389,-1.154 46.563,-1.154 43.151,3.372 C40.494,6.949 40.494,6.949 40.494,6.949 C38.334,9.815 34.597,11.022 31.163,9.966 C26.886,8.673 26.886,8.673 26.886,8.673 C21.465,7.014 15.935,11.000 15.849,16.668 C15.784,21.129 15.784,21.129 15.784,21.129 C15.720,24.706 13.430,27.874 10.017,29.038 C5.784,30.482 5.784,30.482 5.784,30.482 C0.406,32.313 -1.689,38.779 1.572,43.434 C4.142,47.097 4.142,47.097 4.142,47.097 C6.216,50.028 6.216,53.950 4.142,56.881 C1.572,60.544 1.572,60.544 1.572,60.544 C-1.689,65.178 0.406,71.643 5.784,73.496 C10.017,74.940 10.017,74.940 10.017,74.940 C13.408,76.104 15.720,79.271 15.784,82.849 C15.849,87.310 15.849,87.310 15.849,87.310 C15.935,92.977 21.465,96.964 26.886,95.305 C31.163,93.990 31.163,93.990 31.163,93.990 C34.597,92.934 38.334,94.141 40.494,97.007 C43.194,100.585 43.194,100.585 43.194,100.585 C46.606,105.110 53.432,105.110 56.845,100.585 C59.501,97.029 59.501,97.029 59.501,97.029 C61.661,94.163 65.398,92.956 68.832,94.012 C73.109,95.305 73.109,95.305 73.109,95.305 C78.530,96.964 84.060,92.977 84.146,87.310 C84.211,82.849 84.211,82.849 84.211,82.849 C84.276,79.271 86.565,76.104 89.978,74.940 C94.211,73.496 94.211,73.496 94.211,73.496 C99.590,71.664 101.685,65.199 98.423,60.544 C95.875,56.881 95.875,56.881 95.875,56.881 C93.801,53.950 93.801,50.028 95.875,47.097 Z"
     id="path10" />
  <path
     id="path3701"
     d="m 69.206,60.227 c 0.439,0 0.794,0.357 0.794,0.798 0,0 0,0 0,5.597 0,2.214 -1.788,4.015 -3.986,4.015 l -14.215,0.025 c 0,0 0,0 0,5.539 0,0.277 -0.143,0.534 -0.376,0.68 C 51.295,76.96 51.15,77 51.005,77 50.884,77 50.762,76.972 50.65,76.916 l -3.878,-1.952 c 0,0 0,0 -3.877,1.952 -0.246,0.123 -0.539,0.11 -0.773,-0.035 -0.234,-0.146 -0.376,-0.403 -0.376,-0.68 v -5.538 c 0,0 0,0 -7.788,0 -2.183,0 -3.958,-1.813 -3.958,-4.041 0,0 0,0 0,-35.687 C 30,28.728 31.738,27 33.958,27 c 0,0 0,0 32.056,0 2.198,0 3.986,1.765 3.986,3.935 0,0 0,0 0,5.596 0,0.441 -0.355,0.799 -0.794,0.799 h -5.555 v 22.897 c 0,0 0,0 5.555,0 z m -5.555,6.395 c 0,1.327 1.06,2.411 2.364,2.417 1.3,-0.001 2.398,-1.107 2.398,-2.417 v -4.798 h -4.762 c 0,0 0,0 0,4.798 z m -20.318,8.287 c 0,0 0,0 3.084,-1.552 0.224,-0.113 0.487,-0.113 0.71,0 l 3.085,1.552 c 0,0 0,0 0,-9.391 -1.038,0.567 -2.205,0.87 -3.403,0.87 -1.227,0 -2.421,-0.318 -3.476,-0.911 z M 43.087,63.346 c 1.023,0.931 2.345,1.444 3.722,1.444 1.297,0 2.549,-0.458 3.545,-1.291 0.071,-0.104 0.166,-0.19 0.278,-0.249 1.103,-1.056 1.733,-2.519 1.733,-4.051 0,-3.083 -2.492,-5.591 -5.556,-5.591 -3.063,0 -5.555,2.508 -5.555,5.591 0,1.574 0.668,3.086 1.833,4.147 z M 62.858,28.597 c 0,0 0,0 -28.9,0 -1.33,0 -2.371,1.027 -2.371,2.338 0,0 0,0 0,35.687 0,1.348 1.064,2.444 2.371,2.444 h 7.788 c 0,0 0,0 0,-4.801 -1.326,-1.345 -2.079,-3.17 -2.079,-5.066 0,-3.964 3.204,-7.189 7.142,-7.189 3.939,0 7.143,3.225 7.143,7.189 0,1.936 -0.78,3.788 -2.153,5.138 v 4.727 c 0,0 0,0 11.071,-0.019 -0.505,-0.675 -0.807,-1.514 -0.807,-2.423 0,0 0,0 0,-35.634 0,-0.895 0.297,-1.724 0.795,-2.391 z m 5.555,7.136 v -4.798 c 0,-1.288 -1.076,-2.337 -2.398,-2.338 -1.304,0.006 -2.364,1.078 -2.364,2.391 v 4.745 z m -11.006,9.052 c 0,0 0,0 -21.164,0 -0.438,0 -0.793,-0.358 -0.793,-0.799 0,-0.441 0.355,-0.799 0.793,-0.799 h 21.164 c 0.439,0 0.794,0.358 0.794,0.799 0,0.441 -0.355,0.799 -0.794,0.799 z m 0,-3.195 c 0,0 0,0 -3.174,0 -0.439,0 -0.794,-0.358 -0.794,-0.799 0,-0.441 0.355,-0.799 0.794,-0.799 h 3.174 c 0.439,0 0.794,0.358 0.794,0.799 0,0.441 -0.355,0.799 -0.794,0.799 z m -2.703,-4.41 c -0.346,0.271 -0.845,0.208 -1.114,-0.14 l -1.842,-2.385 c 0,0 0,0 -1.842,2.385 -0.151,0.194 -0.382,0.308 -0.627,0.308 -0.245,0 -0.476,-0.114 -0.626,-0.308 L 46.81,34.655 c 0,0 0,0 -1.843,2.385 -0.15,0.194 -0.381,0.308 -0.626,0.308 -0.245,0 -0.476,-0.114 -0.627,-0.308 l -1.842,-2.385 c 0,0 0,0 -1.843,2.385 -0.157,0.202 -0.391,0.308 -0.627,0.308 -0.171,0 -0.342,-0.055 -0.487,-0.168 -0.346,-0.271 -0.408,-0.773 -0.139,-1.121 0,0 0,0 2.47,-3.195 0.15,-0.195 0.381,-0.308 0.626,-0.308 0.245,0 0.476,0.114 0.626,0.308 l 1.843,2.384 c 0,0 0,0 1.843,-2.384 0.15,-0.195 0.382,-0.308 0.627,-0.308 0.244,0 0.476,0.113 0.626,0.308 l 1.842,2.384 c 0,0 0,0 1.843,-2.384 0.15,-0.195 0.381,-0.308 0.626,-0.308 0.245,0 0.476,0.113 0.626,0.308 0,0 0,0 2.469,3.195 0.269,0.348 0.207,0.85 -0.139,1.121 z m -2.852,3.611 c 0,0.441 -0.356,0.799 -0.794,0.799 H 36.243 c -0.438,0 -0.793,-0.358 -0.793,-0.799 0,-0.441 0.355,-0.799 0.793,-0.799 0,0 0,0 14.815,0 0.438,0 0.794,0.358 0.794,0.799 z m -12.434,5.591 h 14.815 c 0.438,0 0.793,0.358 0.793,0.799 0,0.441 -0.355,0.799 -0.793,0.799 0,0 0,0 -14.815,0 -0.438,0 -0.794,-0.358 -0.794,-0.799 0,-0.441 0.356,-0.799 0.794,-0.799 z m 7.391,8.823 c 2.189,0 3.969,1.792 3.969,3.994 0,2.202 -1.78,3.994 -3.969,3.994 -2.188,0 -3.968,-1.792 -3.968,-3.994 0,-2.202 1.78,-3.994 3.968,-3.994 z m 0,6.39 c 1.313,0 2.381,-1.075 2.381,-2.396 0,-1.321 -1.068,-2.396 -2.381,-2.396 -1.312,0 -2.381,1.075 -2.381,2.396 0,1.321 1.069,2.396 2.381,2.396 z"
     inkscape:connector-curvature="0"
     style="fill:#ffffff;fill-rule:evenodd" />
</svg>
