<?xml version="1.0" encoding="UTF-8" standalone="no"?>
<svg
   xmlns:dc="http://purl.org/dc/elements/1.1/"
   xmlns:cc="http://creativecommons.org/ns#"
   xmlns:rdf="http://www.w3.org/1999/02/22-rdf-syntax-ns#"
   xmlns:svg="http://www.w3.org/2000/svg"
   xmlns="http://www.w3.org/2000/svg"
   xmlns:sodipodi="http://sodipodi.sourceforge.net/DTD/sodipodi-0.dtd"
   xmlns:inkscape="http://www.inkscape.org/namespaces/inkscape"
   width="46px"
   height="52px"
   version="1.1"
   id="svg12"
   sodipodi:docname="tree_.svg"
   inkscape:version="0.92.1 r15371">
  <metadata
     id="metadata18">
    <rdf:RDF>
      <cc:Work
         rdf:about="">
        <dc:format>image/svg+xml</dc:format>
        <dc:type
           rdf:resource="http://purl.org/dc/dcmitype/StillImage" />
        <dc:title />
      </cc:Work>
    </rdf:RDF>
  </metadata>
  <defs
     id="defs16" />
  <sodipodi:namedview
     pagecolor="#ffffff"
     bordercolor="#666666"
     borderopacity="1"
     objecttolerance="10"
     gridtolerance="10"
     guidetolerance="10"
     inkscape:pageopacity="0"
     inkscape:pageshadow="2"
     inkscape:window-width="1920"
     inkscape:window-height="1057"
     id="namedview14"
     showgrid="false"
     inkscape:zoom="8"
     inkscape:cx="48.822114"
     inkscape:cy="9.9545202"
     inkscape:window-x="-8"
     inkscape:window-y="-8"
     inkscape:window-maximized="1"
     inkscape:current-layer="svg12">
    <inkscape:grid
       type="xygrid"
       id="grid20" />
  </sodipodi:namedview>
  <path
     style="fill:#ffffff"
     d="m 18.806641,0 c -4.831,0 -9.1349066,3.4538906 -10.6289066,8.4628906 -3.347,1.288 -5.6425782,4.8032344 -5.6425782,8.7402344 0,0.964 0.1334844,1.909406 0.3964844,2.816406 -1.87,1.906 -2.92968747,4.560719 -2.92968747,7.386719 0,2.42 0.79151562,4.759891 2.22851567,6.587891 0.725,0.921 1.5879687,1.683812 2.5429687,2.257812 0.865,3.272 4.2718125,5.208266 7.6328125,4.322266 0.675,-0.178 1.312531,-0.459891 1.894531,-0.837891 0.438,-0.285 0.569016,-0.881031 0.291016,-1.332031 -0.277,-0.45 -0.858875,-0.583828 -1.296875,-0.298828 -0.416,0.27 -0.872422,0.471609 -1.357422,0.599609 -1.754,0.462 -3.5185938,-0.145156 -4.5585938,-1.410156 0.1440001,0.031 0.2895469,0.05803 0.4355469,0.08203 0.512,0.083 0.9941719,-0.275734 1.0761719,-0.802734 0.081,-0.526 -0.26825,-1.019516 -0.78125,-1.103516 -3.551,-0.581 -6.2285156,-4.048453 -6.2285156,-8.064453 0,-2.494 1.002,-4.817 2.75,-6.375 0.297,-0.264 0.402625,-0.688406 0.265625,-1.066406 -0.32,-0.876 -0.4824219,-1.807672 -0.4824219,-2.763672 0,-3.284 1.9747344,-6.1875 4.8027344,-7.0625 0.313,-0.096 0.5556718,-0.3546876 0.6386719,-0.6796876 1.1320002,-4.433 4.8131722,-7.5292969 8.9511722,-7.5292969 2.483,0 4.818172,1.0781563 6.576171,3.0351563 0.351,0.392 0.945172,0.4156875 1.326172,0.054687 0.381,-0.3619999 0.405688,-0.9712812 0.05469,-1.3632812 -0.417,-0.464 -0.863078,-0.8875781 -1.330078,-1.2675781 0.888,-0.258 1.831281,-0.2526094 2.738281,0.025391 1.263,0.387 2.304641,1.2562656 2.931641,2.4472656 0.254,0.482 0.427531,0.9992031 0.519531,1.5332031 0.062,0.364 0.321969,0.6587657 0.667969,0.7597657 2.467,0.726 4.354593,2.9848591 4.808593,5.7558591 0.086,0.526 0.572985,0.880016 1.083985,0.791016 0.511,-0.088 0.855531,-0.585328 0.769531,-1.111328 -0.053,-0.327 -0.123984,-0.648844 -0.208984,-0.964844 2.015,0.774 3.623843,2.47975 4.214843,4.59375 0.343,1.228 0.350157,2.512609 0.03516,3.724609 -0.021,-0.02 -0.0415,-0.04055 -0.0625,-0.06055 -0.375,-0.368 -0.970125,-0.35475 -1.328125,0.03125 -0.358,0.385 -0.34375,0.995282 0.03125,1.363282 1.581,1.549 2.486328,3.782906 2.486328,6.128906 0,4.016 -2.676516,7.483453 -6.228516,8.064453 -0.512,0.084 -0.86325,0.578469 -0.78125,1.105469 0.081,0.526 0.564172,0.883781 1.076172,0.800781 0.248,-0.041 0.493328,-0.0923 0.736328,-0.154297 -1.031,1.314 -2.830187,1.953422 -4.617187,1.482422 -0.485,-0.128 -0.941422,-0.329609 -1.357422,-0.599609 -0.438,-0.285 -1.019875,-0.151172 -1.296875,0.298828 -0.278,0.451 -0.146985,1.047031 0.291015,1.332031 0.582,0.378 1.220485,0.659891 1.896485,0.837891 0.551,0.146 1.102531,0.214843 1.644531,0.214843 2.788,0 5.307859,-1.833421 6.005859,-4.607421 0.009,-0.035 0.01648,-0.07047 0.02148,-0.105469 0.843,-0.551 1.607765,-1.252031 2.259765,-2.082031 1.438,-1.828 2.230469,-4.167891 2.230469,-6.587891 0,-2.057 -0.575141,-4.046891 -1.619141,-5.712891 0.803,-1.894 0.940813,-4.007859 0.382813,-6.005859 -0.919,-3.29 -3.620312,-5.7255469 -6.945313,-6.3105469 -1.021,-1.796 -2.594703,-3.1944843 -4.470703,-3.8964843 -0.138,-0.5320001 -0.33675,-1.0481094 -0.59375,-1.5371094 -0.866,-1.645 -2.302875,-2.8439063 -4.046875,-3.37890628 -1.745,-0.53399999 -3.5865,-0.33821874 -5.1875,0.55078128 L 23.5,1.1269531 C 22.048,0.38895313 20.455641,0 18.806641,0 Z m 8.888671,11.212891 c -0.518,0 -0.937499,0.431843 -0.9375,0.964843 0,1.543 1.220657,2.796875 2.722657,2.796875 1.501,0 2.722656,-1.253875 2.722656,-2.796875 0,-0.533 -0.420453,-0.964843 -0.939453,-0.964843 -0.518,0 -0.939453,0.431843 -0.939453,0.964843 0,0.478 -0.37875,0.867188 -0.84375,0.867188 -0.465,0 -0.84375,-0.389188 -0.84375,-0.867188 0,-0.533 -0.422407,-0.964843 -0.941407,-0.964843 z M 9.3496094,15.699219 c -0.519,0 -0.9414063,0.431843 -0.9414063,0.964843 0,1.542 1.2236094,2.796876 2.7246089,2.796876 1.502001,0 2.722657,-1.254876 2.722657,-2.796876 0,-0.533 -0.420453,-0.964843 -0.939453,-0.964843 -0.519,0 -0.939453,0.431843 -0.939454,0.964843 0,0.478 -0.377749,0.867188 -0.84375,0.867188 -0.464999,0 -0.845703,-0.389188 -0.845703,-0.867188 0,-0.533 -0.4184996,-0.964843 -0.9374996,-0.964843 z m 21.2832026,8.261719 c -0.519,0 -0.941406,0.431843 -0.941406,0.964843 0,1.542 1.221657,2.796875 2.722656,2.796875 1.502001,0 2.72461,-1.254875 2.72461,-2.796875 0,-0.533 -0.421453,-0.964843 -0.939453,-0.964843 -0.519,0 -0.939453,0.431843 -0.939453,0.964843 0,0.478 -0.379703,0.867188 -0.845704,0.867188 -0.464999,0 -0.84375,-0.389188 -0.84375,-0.867188 0,-0.533 -0.4185,-0.964843 -0.9375,-0.964843 z M 8.7363281,27.607422 c -0.1220625,-0.0012 -0.2471875,0.02347 -0.3671875,0.07422 -0.479,0.203 -0.7067656,0.766765 -0.5097656,1.259765 1.06,2.644 3.544125,4.353516 6.328125,4.353516 1.76,0 3.434219,-0.692875 4.699219,-1.921875 1.272,0.652 2.680234,0.992187 4.115234,0.992187 1.434,0 2.840281,-0.341187 4.113281,-0.992187 1.264,1.229 2.938219,1.921875 4.699219,1.921875 2.784,0 5.268125,-1.709516 6.328125,-4.353516 0.198,-0.493 -0.03172,-1.056765 -0.511719,-1.259765 -0.48,-0.203 -1.029562,0.03044 -1.226562,0.523437 -0.769,1.918 -2.570844,3.158203 -4.589844,3.158203 -1.467,0 -2.850875,-0.661406 -3.796875,-1.816406 -0.298,-0.364 -0.811031,-0.450125 -1.207031,-0.203125 -1.144,0.714 -2.461594,1.091797 -3.808594,1.091797 -1.348,0 -2.665547,-0.377797 -3.810547,-1.091797 -0.396,-0.247 -0.909031,-0.160875 -1.207031,0.203125 -0.947,1.155 -2.330875,1.816406 -3.796875,1.816406 -2.02,0 -3.821844,-1.240203 -4.5898438,-3.158203 -0.1485,-0.36975 -0.4951406,-0.594094 -0.8613281,-0.597656 z m 11.7578129,6.037109 c -0.518,0 -0.939453,0.431844 -0.939453,0.964844 v 2.189453 c -0.845,-0.47 -1.594125,-1.113578 -2.203126,-1.892578 -0.324999,-0.416 -0.918265,-0.480484 -1.322265,-0.146484 -0.405,0.334 -0.467578,0.939468 -0.142578,1.355468 0.975,1.247 2.236968,2.214454 3.667969,2.814454 v 6.851562 c -1.024044,0.476593 -1.943199,1.165821 -2.707032,2.019531 H 0.00390625 v 2 H 11.400391 c 0.0069,1.53e-4 0.01262,0.0039 0.01953,0.0039 h 5.791016 c 0.285,0 0.552468,-0.132329 0.730468,-0.361329 0.753,-0.962 1.746094,-1.688515 2.871094,-2.103515 0.373,-0.137 0.621094,-0.501203 0.621094,-0.908203 V 34.609375 c 0,-0.533 -0.420453,-0.964844 -0.939453,-0.964844 z m 5.013671,0 c -0.519,0 -0.941406,0.431844 -0.941406,0.964844 v 5.222656 c 0,0.533 0.422406,0.966797 0.941406,0.966797 0.519,0 0.9375,-0.433797 0.9375,-0.966797 v -0.902343 c 1.432,-0.600001 2.694922,-1.567454 3.669922,-2.814454 0.325,-0.416 0.260469,-1.021468 -0.144531,-1.355468 -0.404,-0.334 -0.995312,-0.268516 -1.320312,0.146484 -0.609,0.779 -1.360079,1.422578 -2.205079,1.892578 v -2.189453 c 0,-0.533 -0.4185,-0.964844 -0.9375,-0.964844 z m 0.990235,8.771485 c -0.359344,-0.07106 -0.742234,0.07986 -0.958985,0.412109 -0.289,0.443 -0.173187,1.042844 0.257813,1.339844 0.227,0.156 0.419313,0.351172 0.570313,0.576172 -0.631001,-0.106 -1.249766,0.08006 -1.759766,0.539062 -0.794,0.714 -1.199203,1.983469 -1.033203,3.230469 0.262,1.956 1.794234,3.488281 3.490234,3.488281 0.211,0 0.418141,-0.02527 0.619141,-0.07227 0.201,0.047 0.40814,0.07227 0.61914,0.07227 1.696,0 3.229235,-1.532281 3.490235,-3.488281 0.167,-1.249 -0.259547,-2.560672 -1.060547,-3.263672 -0.57,-0.5 -1.296141,-0.661313 -1.994141,-0.445312 -0.091,0.028 -0.176718,0.05322 -0.261719,0.07422 C 28.221562,43.943906 27.64875,43.1165 26.84375,42.5625 26.736,42.48825 26.617828,42.439703 26.498047,42.416016 Z M 29.375,46.640625 c 0.03625,0.0059 0.08067,0.02712 0.138672,0.07813 0.274,0.241 0.504969,0.880203 0.417969,1.533203 -0.13,0.969 -0.890907,1.818359 -1.628907,1.818359 -0.105,0 -0.201968,-0.01578 -0.292968,-0.05078 -0.105,-0.039 -0.216172,-0.05859 -0.326172,-0.05859 -0.11,0 -0.219219,0.01959 -0.324219,0.05859 -0.091,0.035 -0.188969,0.05078 -0.292969,0.05078 -0.739,0 -1.500859,-0.848359 -1.630859,-1.818359 -0.089,-0.665 0.146156,-1.276625 0.410156,-1.515625 0.12,-0.107 0.190766,-0.09813 0.259766,-0.07813 0.991,0.281 1.911734,0.387141 3.177734,-0.0059 0.027,-0.0085 0.05555,-0.01759 0.0918,-0.01172 z"
     id="path10"
     inkscape:connector-curvature="0"
     sodipodi:nodetypes="scscscccccccccccsccsccscccccccccccccccccscccccccccscccsccccccccsscsssssssssssscsssssssssssscccscscscscsccsccsccssccccccccccssccsssssssscccccssccccccscsccccccsccscscsccccs" />
</svg>
