<svg xmlns="http://www.w3.org/2000/svg" width="200.5" height="70.5"><path fill-rule="evenodd" fill="#444545" d="M14.034 0h171.921s.528 5.937 4.045 9c3.505 3.052 10 3.23 10 3.23v45.659c-.009.009-7.679.304-10.983 3.145-3.663 3.148-3.063 8.966-3.063 8.966H14.071s-.663-6.053-4.071-9c-3.621-3.13-10-3.165-10-3.165V11.973c0 .019 6.21.266 10-2.973 3.172-2.711 4.034-9 4.034-9z"/><path fill-rule="evenodd" stroke="#FFF" fill="#444545" d="M19.034 6h161.921s.528 4.937 4.045 8c3.505 3.052 9 3.23 9 3.23v35.659c-.009.009-6.679.304-9.983 3.145-3.663 3.148-3.063 7.966-3.063 7.966H19.071s-.663-5.053-4.071-8c-3.62-3.13-9-3.165-9-3.165V16.973c0 .019 5.21.266 9-2.973 3.172-2.711 4.034-8 4.034-8z"/><path fill-rule="evenodd" fill="#FFF" d="M24 31a4 4 0 1 1 0 8 4 4 0 0 1 0-8zm152 0a4 4 0 1 1 0 8 4 4 0 0 1 0-8z"/></svg>