<svg xmlns="http://www.w3.org/2000/svg" width="100" height="104"><path fill-rule="evenodd" fill="#444545" d="M95.875 47.097l2.57-3.663c3.261-4.634 1.166-11.099-4.212-12.952l-4.234-1.444a8.543 8.543 0 0 1-5.767-7.909l-.064-4.461C84.081 11 78.552 7.014 73.13 8.673l-4.298 1.293a8.547 8.547 0 0 1-9.331-3.017l-2.7-3.577c-3.412-4.526-10.238-4.526-13.65 0l-2.657 3.577a8.547 8.547 0 0 1-9.331 3.017l-4.277-1.293C21.465 7.014 15.935 11 15.849 16.668l-.065 4.461a8.511 8.511 0 0 1-5.767 7.909l-4.233 1.444c-5.378 1.831-7.473 8.297-4.212 12.952l2.57 3.663a8.47 8.47 0 0 1 0 9.784l-2.57 3.663C-1.689 65.178.406 71.643 5.784 73.496l4.233 1.444a8.54 8.54 0 0 1 5.767 7.909l.065 4.461c.086 5.667 5.616 9.654 11.037 7.995l4.277-1.315a8.547 8.547 0 0 1 9.331 3.017l2.7 3.578c3.412 4.525 10.238 4.525 13.651 0l2.656-3.556a8.547 8.547 0 0 1 9.331-3.017l4.277 1.293c5.421 1.659 10.951-2.328 11.037-7.995l.065-4.461a8.512 8.512 0 0 1 5.767-7.909l4.233-1.444c5.379-1.832 7.474-8.297 4.212-12.952l-2.548-3.663a8.47 8.47 0 0 1 0-9.784z"/><path d="M60.702 71.404C58.507 73.12 56.184 74 53.89 74c-.65 0-1.299-.07-1.943-.213a9.063 9.063 0 0 0-3.893 0c-2.909.646-5.939-.18-8.756-2.384-4.266-3.337-7.264-9.244-7.29-14.363-.037-6.93 1.363-11.396 4.278-13.652 3.253-2.52 7.865-1.821 11.518-.932.345.084.695.146 1.048.189-.556-2.46-1.829-4.908-4.137-6.12a.737.737 0 0 1-.312-1.004.764.764 0 0 1 1.024-.307c1.662.872 2.867 2.256 3.705 3.837l.245-1.623c.54-3.556 3.33-6.3 6.946-6.83l4.097-.6-.148.982a.728.728 0 0 1-.044.296l-.417 2.752c-.538 3.556-3.33 6.3-6.945 6.83l-2.823.413c.146.473.266.948.362 1.423a9.248 9.248 0 0 0 1.793-.24c3.653-.888 8.263-1.585 11.518.933 2.915 2.257 4.315 6.722 4.278 13.653-.027 5.119-3.025 11.025-7.29 14.363zm-8.06-32.016c2.953-.432 5.233-2.674 5.671-5.578l.1-.652-6.434 6.327zm4.886-7.462l-.983.144c-2.954.433-5.234 2.674-5.673 5.578l-.146.968zm5.253 12.632c-2.139-1.654-5.292-1.856-10.22-.658-.635.154-1.284.232-1.934.269.037.358.064.713.075 1.057a.749.749 0 0 1-.732.766h-.024a.749.749 0 0 1-.754-.72c-.012-.364-.04-.74-.084-1.12a10.782 10.782 0 0 1-1.668-.252c-4.929-1.2-8.083-.997-10.22.657-2.524 1.953-3.735 6.034-3.7 12.476.023 4.626 2.85 10.18 6.72 13.208 1.704 1.335 4.391 2.783 7.482 2.096a10.549 10.549 0 0 1 4.557 0c3.097.688 5.777-.761 7.483-2.096 3.87-3.028 6.696-8.583 6.72-13.207.034-6.442-1.177-10.523-3.7-12.476zM49.88 47.647a4.77 4.77 0 0 1-3.364-1.371.735.735 0 0 1 0-1.051.764.764 0 0 1 1.07 0 3.253 3.253 0 0 0 2.294.935c.865 0 1.68-.332 2.294-.935a.764.764 0 0 1 1.07 0 .735.735 0 0 1 0 1.05 4.768 4.768 0 0 1-3.364 1.372zm-7.29-1.154c-2.917 0-5.29 2.668-5.29 5.948a.75.75 0 0 1-.757.743.75.75 0 0 1-.756-.743c0-4.1 3.051-7.434 6.803-7.434a.75.75 0 0 1 .756.743.75.75 0 0 1-.756.743z" fill="#fff" fill-rule="evenodd"/></svg>