<svg xmlns="http://www.w3.org/2000/svg" width="100" height="104"><path fill-rule="evenodd" fill="#444545" d="M95.875 47.097l2.57-3.663c3.261-4.634 1.166-11.099-4.212-12.952l-4.234-1.444a8.543 8.543 0 0 1-5.767-7.909l-.064-4.461C84.081 11 78.552 7.014 73.13 8.673l-4.298 1.293a8.547 8.547 0 0 1-9.331-3.017l-2.7-3.577c-3.412-4.526-10.238-4.526-13.65 0l-2.657 3.577a8.547 8.547 0 0 1-9.331 3.017l-4.277-1.293C21.465 7.014 15.935 11 15.849 16.668l-.065 4.461a8.511 8.511 0 0 1-5.767 7.909l-4.233 1.444c-5.378 1.831-7.473 8.297-4.212 12.952l2.57 3.663a8.47 8.47 0 0 1 0 9.784l-2.57 3.663C-1.689 65.178.406 71.643 5.784 73.496l4.233 1.444a8.54 8.54 0 0 1 5.767 7.909l.065 4.461c.086 5.667 5.616 9.654 11.037 7.995l4.277-1.315a8.547 8.547 0 0 1 9.331 3.017l2.7 3.578c3.412 4.525 10.238 4.525 13.651 0l2.656-3.556a8.547 8.547 0 0 1 9.331-3.017l4.277 1.293c5.421 1.659 10.951-2.328 11.037-7.995l.065-4.461a8.512 8.512 0 0 1 5.767-7.909l4.233-1.444c5.379-1.832 7.474-8.297 4.212-12.952l-2.548-3.663a8.47 8.47 0 0 1 0-9.784z"/><path d="M69.206 60.227c.439 0 .794.357.794.798v5.597c0 2.214-1.788 4.015-3.986 4.015l-14.215.025v5.539a.796.796 0 0 1-1.149.715l-3.878-1.952-3.877 1.952a.794.794 0 0 1-1.149-.715v-5.538h-7.788c-2.183 0-3.958-1.813-3.958-4.041V30.935C30 28.728 31.738 27 33.958 27h32.056C68.212 27 70 28.765 70 30.935v5.596a.796.796 0 0 1-.794.799h-5.555v22.897h5.555zm-5.555 6.395c0 1.327 1.06 2.411 2.364 2.417 1.3-.001 2.398-1.107 2.398-2.417v-4.798h-4.762v4.798zm-20.318 8.287l3.084-1.552a.786.786 0 0 1 .71 0l3.085 1.552v-9.391a7.093 7.093 0 0 1-6.879-.041zm-.246-11.563a5.52 5.52 0 0 0 7.267.153.774.774 0 0 1 .278-.249 5.612 5.612 0 0 0 1.733-4.051c0-3.083-2.492-5.591-5.556-5.591-3.063 0-5.555 2.508-5.555 5.591 0 1.574.668 3.086 1.833 4.147zm19.771-34.749h-28.9c-1.33 0-2.371 1.027-2.371 2.338v35.687c0 1.348 1.064 2.444 2.371 2.444h7.788v-4.801a7.23 7.23 0 0 1-2.079-5.066c0-3.964 3.204-7.189 7.142-7.189 3.939 0 7.143 3.225 7.143 7.189a7.21 7.21 0 0 1-2.153 5.138v4.727l11.071-.019a4.033 4.033 0 0 1-.807-2.423V30.988c0-.895.297-1.724.795-2.391zm5.555 7.136v-4.798c0-1.288-1.076-2.337-2.398-2.338a2.387 2.387 0 0 0-2.364 2.391v4.745zm-11.006 9.052H36.243a.796.796 0 0 1-.793-.799c0-.441.355-.799.793-.799h21.164c.439 0 .794.358.794.799a.796.796 0 0 1-.794.799zm0-3.195h-3.174a.796.796 0 0 1-.794-.799c0-.441.355-.799.794-.799h3.174c.439 0 .794.358.794.799a.796.796 0 0 1-.794.799zm-2.703-4.41a.79.79 0 0 1-1.114-.14l-1.842-2.385-1.842 2.385a.792.792 0 0 1-1.253 0l-1.843-2.385-1.843 2.385a.792.792 0 0 1-1.253 0l-1.842-2.385-1.843 2.385a.793.793 0 0 1-1.114.14.802.802 0 0 1-.139-1.121l2.47-3.195a.789.789 0 0 1 1.252 0l1.843 2.384 1.843-2.384a.79.79 0 0 1 1.253 0l1.842 2.384 1.843-2.384a.789.789 0 0 1 1.252 0l2.469 3.195a.802.802 0 0 1-.139 1.121zm-2.852 3.611a.797.797 0 0 1-.794.799H36.243a.796.796 0 0 1-.793-.799c0-.441.355-.799.793-.799h14.815c.438 0 .794.358.794.799zm-12.434 5.591h14.815c.438 0 .793.358.793.799a.796.796 0 0 1-.793.799H39.418a.797.797 0 0 1-.794-.799c0-.441.356-.799.794-.799zm7.391 8.823c2.189 0 3.969 1.792 3.969 3.994s-1.78 3.994-3.969 3.994c-2.188 0-3.968-1.792-3.968-3.994s1.78-3.994 3.968-3.994zm0 6.39a2.391 2.391 0 0 0 2.381-2.396 2.391 2.391 0 0 0-2.381-2.396 2.392 2.392 0 0 0-2.381 2.396 2.392 2.392 0 0 0 2.381 2.396z" fill="#fff" fill-rule="evenodd"/></svg>