<svg xmlns="http://www.w3.org/2000/svg" width="100" height="104"><path fill-rule="evenodd" fill="#444545" d="M95.875 47.097l2.57-3.663c3.261-4.634 1.166-11.099-4.212-12.952l-4.234-1.444a8.543 8.543 0 0 1-5.767-7.909l-.064-4.461C84.081 11 78.552 7.014 73.13 8.673l-4.298 1.293a8.547 8.547 0 0 1-9.331-3.017l-2.7-3.577c-3.412-4.526-10.238-4.526-13.65 0l-2.657 3.577a8.547 8.547 0 0 1-9.331 3.017l-4.277-1.293C21.465 7.014 15.935 11 15.849 16.668l-.065 4.461a8.511 8.511 0 0 1-5.767 7.909l-4.233 1.444c-5.378 1.831-7.473 8.297-4.212 12.952l2.57 3.663a8.47 8.47 0 0 1 0 9.784l-2.57 3.663C-1.689 65.178.406 71.643 5.784 73.496l4.233 1.444a8.54 8.54 0 0 1 5.767 7.909l.065 4.461c.086 5.667 5.616 9.654 11.037 7.995l4.277-1.315a8.547 8.547 0 0 1 9.331 3.017l2.7 3.578c3.412 4.525 10.238 4.525 13.651 0l2.656-3.556a8.547 8.547 0 0 1 9.331-3.017l4.277 1.293c5.421 1.659 10.951-2.328 11.037-7.995l.065-4.461a8.512 8.512 0 0 1 5.767-7.909l4.233-1.444c5.379-1.832 7.474-8.297 4.212-12.952l-2.548-3.663a8.47 8.47 0 0 1 0-9.784z"/><path d="M74.772 51.394L54.821 71.037a.788.788 0 0 1-1.102 0l-.625-.617v2.813a.773.773 0 0 1-.78.766H25.779a.773.773 0 0 1-.779-.766V30.767c0-.423.349-.767.779-.767h26.535c.431 0 .78.344.78.767v11.27a6.01 6.01 0 0 1 3.118-.866c1.83 0 3.471.815 4.568 2.095l2.869-2.825a.79.79 0 0 1 1.102 0l10.021 9.867a.761.761 0 0 1 0 1.085zM51.535 31.536H26.558v40.93h24.977v-3.58l-3.179-3.13v1.496h-4.344V65.72h4.306l-1.868-1.84h-2.438v-1.534h.88l-1.194-1.176a.761.761 0 0 1 0-1.085l.314-.31v-.802h.816l1.867-1.839h-2.683V55.6h4.242l4.107-4.044a5.84 5.84 0 0 1-2.128-4.498 5.8 5.8 0 0 1 1.302-3.66zm4.677 11.17c-2.438 0-4.421 1.951-4.421 4.351s1.983 4.353 4.421 4.353c2.437 0 4.42-1.952 4.42-4.352 0-2.4-1.983-4.352-4.42-4.352zm3.894 16.768c-1.091 0-2.284-.484-3.229-1.414-.765-.754-1.264-1.69-1.404-2.64a3.224 3.224 0 0 1 .214-1.776l-7.092 6.983 5.675 5.587 7.095-6.985a3.222 3.222 0 0 1-1.259.245zm.384-4.97c-.522-.514-1.179-.861-1.804-.95a2.18 2.18 0 0 0-.316-.024c-.316 0-.71.072-1.008.365-.41.404-.394.99-.347 1.303.091.615.443 1.263.964 1.776 1.016 1 2.448 1.279 3.129.609.68-.67.397-2.08-.618-3.08zm-1.208-2.397c.835.198 1.643.655 2.31 1.31 1.329 1.31 1.763 3.105 1.188 4.419l7.095-6.985-5.675-5.587-2.014 1.983c-.067 2.062-1.215 3.86-2.904 4.86zM64.2 42.069l-2.562 2.522c.112.238.21.485.289.74l1.722-1.696a.79.79 0 0 1 1.102 0l6.776 6.673a.758.758 0 0 1 0 1.085l-16.706 16.45a.788.788 0 0 1-1.102 0l-6.777-6.674a.758.758 0 0 1 0-1.083l7.516-7.4a6.149 6.149 0 0 1-.751-.286l-8.356 8.228 8.919 8.78 18.849-18.557zm-7.988 8.88c-2.179 0-3.952-1.746-3.952-3.892 0-2.145 1.773-3.89 3.952-3.89 2.179 0 3.952 1.744 3.952 3.89s-1.773 3.891-3.952 3.891zm0-6.249c-1.32 0-2.394 1.058-2.394 2.357 0 1.3 1.074 2.357 2.394 2.357s2.393-1.057 2.393-2.357c0-1.299-1.073-2.357-2.393-2.357zm-27.337 4.831h20.344v1.532H28.875zm0-3.561h20.344v1.562H28.875zm5.75-5.625v-1.532h8.844v1.531zm-2.156-4.47h13.156v1.532H32.469zm8.187 21.25H29.75v-1.53h10.906zm0 3.376H29.75V58.97h10.906zm0 3.375H29.75v-1.531h10.906zm0 3.375H29.75v-1.532h10.906zM61.36 40.66c-2.64 0-4.788-2.115-4.788-4.714 0-2.6 2.148-4.714 4.788-4.714s4.787 2.114 4.787 4.714c0 2.6-2.147 4.713-4.787 4.713zm0-7.894c-1.781 0-3.229 1.426-3.229 3.18 0 1.753 1.448 3.18 3.229 3.18 1.78 0 3.229-1.427 3.229-3.18 0-1.754-1.449-3.18-3.229-3.18zm0 5.923c-1.537 0-2.787-1.23-2.787-2.742 0-1.514 1.25-2.745 2.787-2.745 1.536 0 2.786 1.231 2.786 2.744 0 1.512-1.25 2.743-2.786 2.743zm0-3.952a1.22 1.22 0 0 0-1.228 1.21c0 .665.55 1.208 1.228 1.208a1.22 1.22 0 0 0 1.228-1.208 1.22 1.22 0 0 0-1.228-1.21z" fill="#fff" fill-rule="evenodd"/></svg>