<svg xmlns="http://www.w3.org/2000/svg" width="100" height="104"><path fill-rule="evenodd" fill="#444545" d="M95.875 47.097l2.57-3.663c3.261-4.634 1.166-11.099-4.212-12.952l-4.234-1.444a8.543 8.543 0 0 1-5.767-7.909l-.064-4.461C84.081 11 78.552 7.014 73.13 8.673l-4.298 1.293a8.547 8.547 0 0 1-9.331-3.017l-2.7-3.577c-3.412-4.526-10.238-4.526-13.65 0l-2.657 3.577a8.547 8.547 0 0 1-9.331 3.017l-4.277-1.293C21.465 7.014 15.935 11 15.849 16.668l-.065 4.461a8.511 8.511 0 0 1-5.767 7.909l-4.233 1.444c-5.378 1.831-7.473 8.297-4.212 12.952l2.57 3.663a8.47 8.47 0 0 1 0 9.784l-2.57 3.663C-1.689 65.178.406 71.643 5.784 73.496l4.233 1.444a8.54 8.54 0 0 1 5.767 7.909l.065 4.461c.086 5.667 5.616 9.654 11.037 7.995l4.277-1.315a8.547 8.547 0 0 1 9.331 3.017l2.7 3.578c3.412 4.525 10.238 4.525 13.651 0l2.656-3.556a8.547 8.547 0 0 1 9.331-3.017l4.277 1.293c5.421 1.659 10.951-2.328 11.037-7.995l.065-4.461a8.512 8.512 0 0 1 5.767-7.909l4.233-1.444c5.379-1.832 7.474-8.297 4.212-12.952l-2.548-3.663a8.47 8.47 0 0 1 0-9.784z"/><path d="M64.11 43.782c.267-1.049.48-2.07.634-3.054.802-5.12-.084-8.712-2.494-10.114-.701-.408-1.506-.614-2.393-.614-2.803 0-6.344 2.096-9.917 5.638a32.58 32.58 0 0 0-2.346-2.119c-4.001-3.26-7.532-4.283-9.942-2.881-1.549.901-2.491 2.741-2.724 5.32a.787.787 0 0 0 .708.856c.432.04.81-.28.85-.713.129-1.428.571-3.298 1.948-4.099 1.784-1.037 4.764-.038 8.177 2.742a31.617 31.617 0 0 1 2.238 2.02c-1.499 1.606-2.99 3.455-4.422 5.498-2.519.231-4.918.619-7.12 1.15-.385-1.51-.65-2.951-.781-4.288a.782.782 0 0 0-.854-.707.787.787 0 0 0-.702.861c.138 1.415.418 2.938.826 4.53-1.001.285-1.953.6-2.848.947-4.803 1.861-7.448 4.43-7.448 7.234 0 2.803 2.645 5.372 7.448 7.233.923.357 1.907.682 2.942.973a33.29 33.29 0 0 0-.634 3.054c-.802 5.12.084 8.712 2.494 10.114.7.408 1.506.614 2.393.614 2.77 0 6.263-2.049 9.793-5.517.757.744 1.516 1.43 2.273 2.046C55.041 72.813 57.637 74 59.767 74c.88 0 1.68-.202 2.385-.612 2.41-1.402 3.296-4.994 2.494-10.115a33.201 33.201 0 0 0-.634-3.053c1.609-.447 3.09-.973 4.401-1.571a.79.79 0 0 0 .389-1.043.78.78 0 0 0-1.035-.392c-1.241.567-2.645 1.066-4.174 1.49-.632-2.128-1.474-4.349-2.5-6.596 1.072-2.324 1.948-4.622 2.601-6.82 5.803 1.637 9.242 4.222 9.242 6.701 0 1.601-1.386 2.922-2.549 3.748a.792.792 0 0 0-.188 1.098.777.777 0 0 0 1.089.19c2.102-1.493 3.212-3.235 3.212-5.036 0-2.804-2.645-5.373-7.448-7.234a32.721 32.721 0 0 0-2.942-.973zm-2.642-11.804c1.784 1.038 2.415 4.138 1.731 8.505a31.593 31.593 0 0 1-.603 2.906c-2.211-.528-4.619-.912-7.145-1.138-1.417-2.021-2.905-3.869-4.418-5.488.277-.275.554-.542.831-.798 3.049-2.831 5.888-4.39 7.993-4.39.609 0 1.151.136 1.611.403zm-8.051 10.126a63.04 63.04 0 0 0-6.947.006 48.622 48.622 0 0 1 3.473-4.217 47.953 47.953 0 0 1 3.474 4.211zm-7.075 19.755a61.993 61.993 0 0 0 7.189.005 48.093 48.093 0 0 1-3.594 4.35 47.473 47.473 0 0 1-3.595-4.355zm-1.171-1.656a61.532 61.532 0 0 1-4.646-8.101 61.248 61.248 0 0 1 4.772-8.338A61.511 61.511 0 0 1 50 43.586c1.592 0 3.123.06 4.587.169a61.702 61.702 0 0 1 4.78 8.35 61.65 61.65 0 0 1-4.66 8.101 61.068 61.068 0 0 1-9.536-.003zm-7.35-1.121a47.594 47.594 0 0 1 1.869-5.125 62.523 62.523 0 0 0 3.469 6.05 46.567 46.567 0 0 1-5.338-.925zM41.423 47a62.846 62.846 0 0 0-1.739 3.248 48.617 48.617 0 0 1-1.959-5.33 46.527 46.527 0 0 1 5.558-.962A62.15 62.15 0 0 0 41.423 47zm-5.21-1.686c.65 2.185 1.522 4.476 2.586 6.79-1.023 2.243-1.863 4.461-2.493 6.586-5.803-1.638-9.242-4.223-9.242-6.701 0-2.466 3.402-5.037 9.149-6.675zm2.319 26.685c-1.784-1.038-2.415-4.138-1.732-8.505.147-.936.35-1.907.604-2.906 2.139.511 4.462.886 6.899 1.115 1.454 2.08 2.983 3.979 4.538 5.635-.235.231-.47.456-.705.674-3.049 2.831-5.888 4.39-7.993 4.39-.609 0-1.151-.136-1.611-.403zm22.838.024c-1.784 1.038-4.764.039-8.177-2.741a31.27 31.27 0 0 1-2.159-1.943c1.539-1.637 3.071-3.53 4.541-5.628 2.443-.226 4.778-.598 6.922-1.104.255 1.001.458 1.974.605 2.911.683 4.368.052 7.468-1.732 8.505zM56.724 60.01a62.961 62.961 0 0 0 3.477-6.053 47.809 47.809 0 0 1 1.876 5.134 47.704 47.704 0 0 1-5.353.919zm1.755-12.986a62.85 62.85 0 0 0-1.884-3.082c2.018.225 3.886.55 5.584.953a48.165 48.165 0 0 1-1.97 5.359 63.726 63.726 0 0 0-1.73-3.23zM46.09 51.989c0 2.171 1.754 3.938 3.91 3.938s3.91-1.767 3.91-3.938c0-2.172-1.754-3.939-3.91-3.939s-3.91 1.767-3.91 3.939zm1.564 0A2.358 2.358 0 0 1 50 49.625a2.358 2.358 0 0 1 2.346 2.364A2.358 2.358 0 0 1 50 54.352a2.358 2.358 0 0 1-2.346-2.363z" fill="#fff" fill-rule="evenodd"/></svg>