<svg xmlns="http://www.w3.org/2000/svg" width="46" height="52"><path d="M18.807 0c-4.831 0-9.135 3.454-10.63 8.463-3.346 1.288-5.642 4.803-5.642 8.74 0 .964.134 1.91.397 2.817-1.87 1.906-2.93 4.56-2.93 7.386 0 2.42.791 4.76 2.228 6.588a9.428 9.428 0 0 0 2.543 2.258c.865 3.272 4.272 5.208 7.633 4.322a6.528 6.528 0 0 0 1.895-.838.98.98 0 0 0 .29-1.332.926.926 0 0 0-1.296-.299c-.416.27-.873.472-1.358.6-1.753.462-3.518-.145-4.558-1.41.144.03.29.058.435.082a.945.945 0 0 0 1.077-.803.962.962 0 0 0-.782-1.103c-3.55-.581-6.228-4.049-6.228-8.065 0-2.494 1.002-4.817 2.75-6.375a.981.981 0 0 0 .265-1.066 8.036 8.036 0 0 1-.482-2.764c0-3.284 1.975-6.187 4.803-7.062a.955.955 0 0 0 .638-.68c1.132-4.433 4.814-7.53 8.952-7.53 2.483 0 4.818 1.079 6.576 3.036a.92.92 0 0 0 1.326.055.984.984 0 0 0 .055-1.364 11.824 11.824 0 0 0-1.33-1.267 4.765 4.765 0 0 1 2.738.025 4.936 4.936 0 0 1 2.932 2.447c.254.482.427 1 .519 1.534a.954.954 0 0 0 .668.76c2.467.725 4.355 2.984 4.809 5.755a.943.943 0 0 0 1.084.791.962.962 0 0 0 .77-1.111 9.674 9.674 0 0 0-.21-.965c2.015.774 3.624 2.48 4.215 4.594a7.154 7.154 0 0 1 .035 3.724l-.062-.06a.921.921 0 0 0-1.328.031.983.983 0 0 0 .03 1.363c1.582 1.55 2.487 3.783 2.487 6.13 0 4.015-2.676 7.483-6.228 8.064a.963.963 0 0 0-.782 1.105.944.944 0 0 0 1.077.8c.248-.04.493-.091.736-.153-1.031 1.314-2.83 1.953-4.617 1.482a4.682 4.682 0 0 1-1.358-.6.926.926 0 0 0-1.297.3.98.98 0 0 0 .291 1.331 6.527 6.527 0 0 0 3.541 1.053c2.788 0 5.308-1.833 6.006-4.607a.986.986 0 0 0 .022-.106 9.467 9.467 0 0 0 2.26-2.082c1.437-1.828 2.23-4.168 2.23-6.588 0-2.057-.575-4.047-1.62-5.713a9.101 9.101 0 0 0 .384-6.006 8.787 8.787 0 0 0-6.946-6.31C36.8 7.58 35.226 6.182 33.35 5.48a7.178 7.178 0 0 0-.594-1.537C31.89 2.298 30.453 1.1 28.709.564a6.61 6.61 0 0 0-5.188.551l-.021.012A10.313 10.313 0 0 0 18.807 0zm8.888 11.213a.951.951 0 0 0-.937.965c0 1.543 1.22 2.797 2.722 2.797 1.501 0 2.723-1.254 2.723-2.797a.952.952 0 0 0-.94-.965.953.953 0 0 0-.939.965.857.857 0 0 1-.844.867.857.857 0 0 1-.843-.867.954.954 0 0 0-.942-.965zM9.35 15.699a.954.954 0 0 0-.942.965c0 1.542 1.224 2.797 2.725 2.797 1.502 0 2.722-1.255 2.722-2.797a.952.952 0 0 0-.939-.965.952.952 0 0 0-.94.965.856.856 0 0 1-.843.867.859.859 0 0 1-.846-.867.95.95 0 0 0-.937-.965zm21.283 8.262a.954.954 0 0 0-.942.965c0 1.542 1.222 2.797 2.723 2.797 1.502 0 2.725-1.255 2.725-2.797a.953.953 0 0 0-.94-.965.952.952 0 0 0-.94.965.857.857 0 0 1-.845.867.857.857 0 0 1-.844-.867.95.95 0 0 0-.937-.965zM8.736 27.607a.92.92 0 0 0-.367.075.975.975 0 0 0-.51 1.26c1.06 2.643 3.544 4.353 6.328 4.353 1.76 0 3.435-.693 4.7-1.922a9.025 9.025 0 0 0 8.229 0 6.73 6.73 0 0 0 4.698 1.922c2.784 0 5.269-1.71 6.329-4.354a.974.974 0 0 0-.512-1.26.93.93 0 0 0-1.227.524c-.769 1.918-2.57 3.158-4.59 3.158a4.9 4.9 0 0 1-3.796-1.816.923.923 0 0 0-1.207-.203 7.188 7.188 0 0 1-7.62 0 .923.923 0 0 0-1.207.203 4.902 4.902 0 0 1-3.797 1.816c-2.02 0-3.821-1.24-4.59-3.158a.941.941 0 0 0-.86-.598zm11.758 6.038a.953.953 0 0 0-.94.964v2.19a7.316 7.316 0 0 1-2.202-1.893.924.924 0 0 0-1.323-.146.98.98 0 0 0-.142 1.355 9.157 9.157 0 0 0 3.668 2.815v6.851a8.39 8.39 0 0 0-2.707 2.02H.004v2H11.4c.007 0 .013.004.02.004h5.79a.923.923 0 0 0 .731-.362 6.511 6.511 0 0 1 2.871-2.103.963.963 0 0 0 .622-.908V34.609a.952.952 0 0 0-.94-.964zm5.014 0a.954.954 0 0 0-.942.964v5.223c0 .533.423.967.942.967.519 0 .937-.434.937-.967v-.902a9.156 9.156 0 0 0 3.67-2.815.98.98 0 0 0-.144-1.355.922.922 0 0 0-1.32.146 7.324 7.324 0 0 1-2.206 1.893v-2.19a.95.95 0 0 0-.937-.964zm.99 8.771a.93.93 0 0 0-.959.412.982.982 0 0 0 .258 1.34c.227.156.42.351.57.576-.63-.106-1.25.08-1.76.54-.794.713-1.199 1.983-1.033 3.23.262 1.956 1.794 3.488 3.49 3.488.211 0 .419-.025.62-.072.2.047.408.072.619.072 1.696 0 3.229-1.532 3.49-3.488.167-1.25-.26-2.561-1.06-3.264-.57-.5-1.297-.661-1.995-.445a4.838 4.838 0 0 1-.261.074 4.127 4.127 0 0 0-1.633-2.316.926.926 0 0 0-.346-.147zm2.877 4.225a.29.29 0 0 1 .139.078c.274.24.505.88.418 1.533-.13.969-.891 1.818-1.63 1.818a.806.806 0 0 1-.292-.05.94.94 0 0 0-.65 0 .81.81 0 0 1-.294.05c-.739 0-1.5-.848-1.63-1.818-.09-.665.146-1.277.41-1.516.12-.107.19-.098.26-.078.99.281 1.911.387 3.177-.006.027-.008.056-.017.092-.011z" fill="#fff"/></svg>